<svg width="112" height="18" viewBox="0 0 112 18" fill="none" xmlns="http://www.w3.org/2000/svg">
<path d="M-0.000812411 17.0879V0.287889H5.73519C7.70319 0.287889 9.31919 0.63989 10.5832 1.34389C11.8632 2.03189 12.8072 3.00789 13.4152 4.27189C14.0392 5.51989 14.3512 6.99189 14.3512 8.68789C14.3512 10.3839 14.0392 11.8639 13.4152 13.1279C12.8072 14.3759 11.8632 15.3519 10.5832 16.0559C9.31919 16.7439 7.70319 17.0879 5.73519 17.0879H-0.000812411ZM3.07119 14.4479H5.59119C6.99919 14.4479 8.11119 14.2239 8.92719 13.7759C9.74319 13.3119 10.3272 12.6559 10.6792 11.8079C11.0312 10.9439 11.2072 9.90389 11.2072 8.68789C11.2072 7.48789 11.0312 6.45589 10.6792 5.59189C10.3272 4.72789 9.74319 4.06389 8.92719 3.59989C8.11119 3.13589 6.99919 2.90389 5.59119 2.90389H3.07119V14.4479ZM17.0617 17.0879V0.287889H28.0297V2.75989H20.1337V7.36789H27.3097V9.76789H20.1337V14.6159H28.0297V17.0879H17.0617ZM30.9367 17.0879V0.287889H37.1047C38.4487 0.287889 39.5527 0.51989 40.4167 0.983891C41.2967 1.43189 41.9527 2.04789 42.3847 2.83189C42.8167 3.59989 43.0327 4.45589 43.0327 5.39989C43.0327 6.42389 42.7607 7.35989 42.2167 8.20789C41.6887 9.05589 40.8567 9.67189 39.7207 10.0559L43.2007 17.0879H39.6727L36.5527 10.4639H34.0087V17.0879H30.9367ZM34.0087 8.20789H36.9127C37.9367 8.20789 38.6887 7.95989 39.1687 7.46389C39.6487 6.96789 39.8887 6.31189 39.8887 5.49589C39.8887 4.69589 39.6487 4.05589 39.1687 3.57589C38.7047 3.09589 37.9447 2.85589 36.8887 2.85589H34.0087V8.20789ZM45.8898 17.0879V0.287889H49.5378L54.8898 10.9439L60.1698 0.287889H63.8178V17.0879H60.7458V5.49589L56.0658 14.6879H53.6418L48.9618 5.49589V17.0879H45.8898ZM65.9973 17.0879L72.1413 0.287889H75.5973L81.7413 17.0879H78.4773L77.1333 13.1999H70.5813L69.2133 17.0879H65.9973ZM71.4213 10.7999H76.2933L73.8453 3.81589L71.4213 10.7999ZM86.0362 17.0879V2.75989H81.1402V0.287889H94.0282V2.75989H89.1082V17.0879H86.0362ZM103.567 17.3759C101.887 17.3759 100.415 17.0079 99.1505 16.2719C97.9025 15.5359 96.9185 14.5199 96.1985 13.2239C95.4945 11.9119 95.1425 10.3999 95.1425 8.68789C95.1425 6.97589 95.4945 5.47189 96.1985 4.17589C96.9185 2.86389 97.9025 1.83989 99.1505 1.10389C100.415 0.36789 101.887 -0.000109673 103.567 -0.000109673C105.231 -0.000109673 106.695 0.36789 107.959 1.10389C109.223 1.83989 110.207 2.86389 110.911 4.17589C111.615 5.47189 111.967 6.97589 111.967 8.68789C111.967 10.3999 111.615 11.9119 110.911 13.2239C110.207 14.5199 109.223 15.5359 107.959 16.2719C106.695 17.0079 105.231 17.3759 103.567 17.3759ZM103.567 14.6159C105.167 14.6159 106.439 14.0879 107.383 13.0319C108.343 11.9759 108.823 10.5279 108.823 8.68789C108.823 6.84789 108.343 5.39989 107.383 4.34389C106.439 3.28789 105.167 2.75989 103.567 2.75989C101.967 2.75989 100.687 3.28789 99.7265 4.34389C98.7665 5.39989 98.2865 6.84789 98.2865 8.68789C98.2865 10.5279 98.7665 11.9759 99.7265 13.0319C100.687 14.0879 101.967 14.6159 103.567 14.6159Z" fill="#644B2C"/>
</svg>
